<?xml version="1.0" encoding="utf-8"?>
<!-- Generator: Adobe Illustrator 22.0.0, SVG Export Plug-In . SVG Version: 6.00 Build 0)  -->
<svg version="1.1" id="Layer_1" xmlns="http://www.w3.org/2000/svg" xmlns:xlink="http://www.w3.org/1999/xlink" x="0px" y="0px"
	 viewBox="0 0 616 556" style="enable-background:new 0 0 616 556;" xml:space="preserve">
<style type="text/css">
	.st0{fill-rule:evenodd;clip-rule:evenodd;fill:url(#SVGID_1_);}
</style>
<linearGradient id="SVGID_1_" gradientUnits="userSpaceOnUse" x1="586.367" y1="561.691" x2="71.3252" y2="46.6492">
	<stop  offset="0" style="stop-color:#1656FD"/>
	<stop  offset="1" style="stop-color:#D102FF"/>
</linearGradient>
<path class="st0" d="M165.3,495.5c-3.2,0-5.8-2.6-5.8-5.8v-11.5c0-3.2,2.6-5.8,5.8-5.8h76.6c3.2,0,5.8,2.6,5.8,5.8v11.5
	c0,3.2-2.6,5.8-5.8,5.8H165.3z M272.1,495.5c-3.2,0-5.8-2.6-5.8-5.8v-11.5c0-3.2,2.6-5.8,5.8-5.8h76.6c3.2,0,5.8,2.6,5.8,5.8v11.5
	c0,3.2-2.6,5.8-5.8,5.8H272.1z M378.8,495.5c-3.2,0-5.8-2.6-5.8-5.8v-11.5c0-3.2,2.6-5.8,5.8-5.8h76.6c3.2,0,5.8,2.6,5.8,5.8v11.5
	c0,3.2-2.6,5.8-5.8,5.8H378.8z M485.7,495.5c-3.2,0-5.9-2.6-5.9-5.8v-11.6c0-3.2,2.6-5.8,5.9-5.8h76.5c3.2,0,5.8,2.6,5.8,5.8v11.6
	c0,3.2-2.6,5.8-5.8,5.8H485.7z M568.1,343.9c0-16.7,0-33.3,0-50c0-3.2-2.6-5.8-5.8-5.8c-37.3,0-74.5,0-111.8,0
	c-3.2,0-5.8,2.6-5.8,5.8c0,16.7,0,33.3,0,50c0,3.2,2.6,5.8,5.8,5.8c37.3,0,74.5,0,111.8,0C565.4,349.7,568.1,347.2,568.1,343.9z
	 M140.3,234c-20.8,0-37.8,17-37.8,37.8v245.6c0,20.8,16.9,37.8,37.8,37.8h437c20.8,0,37.8-17,37.8-37.8V271.8
	c0-20.8-17-37.8-37.8-37.8H140.3z M29.7,96.8L455.9,0.9c20.3-4.6,40.6,8.2,45.1,28.6l44.7,197.4H519l-20.3-89.4L49.7,239.3
	l27.8,122.6l2.5,10.9c1,4.4,5.3,7.2,9.7,6.2l3.3-0.8v26.1l-0.5,0.1c-16.9,3.8-33.7-6.9-37.5-23.7L1,142c-2.3-10.2-0.6-19.7,4.9-28.6
	C11.4,104.6,19.5,99.1,29.7,96.8L29.7,96.8z M33.4,167.2L482.5,65.4l-6.2-27.4c-1.7-7.8-9.6-12.7-17.4-11L38.1,121.7
	c-7.8,1.7-12.7,9.5-11,17.4C29.2,148.4,31.3,157.9,33.4,167.2z"/>
</svg>
