<?xml version="1.0" encoding="utf-8"?>
<!-- Generator: Adobe Illustrator 22.0.0, SVG Export Plug-In . SVG Version: 6.00 Build 0)  -->
<svg version="1.1" id="Layer_1" xmlns="http://www.w3.org/2000/svg" xmlns:xlink="http://www.w3.org/1999/xlink" x="0px" y="0px"
	 viewBox="0 0 74 68" style="enable-background:new 0 0 74 68;" xml:space="preserve">
<g>
	<defs>
		<path id="SVGID_1_" d="M68.4,9.8L74,36.4c-12.1-0.5-23.4,4.8-31.8,11.2c-3.6,2.8-6.7,5.8-9.2,8.8c0.9-5.5,3.1-10.2,6.3-14.3
			c5.3-7,13.4-12.5,22.4-16.8c1.6-0.8,2.2-3,1.2-4.5l-5.9-8.5C61.3,11.1,65.3,10.2,68.4,9.8z M18.8,2.2l19.8,18.2
			c-8,5.8-14.1,12.7-17.6,20.9c-3.2,7.5-4.2,16.1-3.2,25.7L1.3,55.4c-2-12.5-1.6-22.8,1.3-31.5C5.4,15.7,10.7,8.7,18.8,2.2z M40.1-1
			l15.8,22.5c-8.3,4.3-16,9.7-21.5,17c-5.1,6.7-8,15.1-7.8,24.9l-3.1-2.2c-0.1-6.6,1-12.3,3.2-17.4c3.4-8,9.6-14.7,18.5-20.5
			c1.5-1,1.7-3.5,0.4-4.8L31.2,5.3C34,3,37,0.9,40.1-1z"/>
	</defs>
	<linearGradient id="SVGID_2_" gradientUnits="userSpaceOnUse" x1="56.2888" y1="54.1001" x2="11.3156" y2="9.1268">
		<stop  offset="0" style="stop-color:#1656FD"/>
		<stop  offset="1" style="stop-color:#D102FF"/>
	</linearGradient>
	<use xlink:href="#SVGID_1_"  style="overflow:visible;fill:url(#SVGID_2_);"/>
	<clipPath id="SVGID_3_">
		<use xlink:href="#SVGID_1_"  style="overflow:visible;"/>
	</clipPath>
</g>
</svg>
