<svg version="1.1" id="Layer_1" xmlns="http://www.w3.org/2000/svg" xmlns:xlink="http://www.w3.org/1999/xlink" x="0px" y="0px"
	 viewBox="0 0 54 68" style="enable-background:new 0 0 54 68;" xml:space="preserve">
<style type="text/css">
	.st0{clip-path:url(#SVGID_2_);}
</style>
<g>
	<defs>
		<path id="SVGID_1_" d="M51.1,19H47c-1.4,0-2.5,1.1-2.5,2.5V39h-5.7h-9.1h-5.2h-9.4H9.5V21.5C9.5,20.1,8.4,19,7,19H2.9
			c-1.4,0-2.5,1.1-2.5,2.5S1.5,24,2.9,24h1.6v17.5C4.5,42.9,5.6,44,7,44h5.7v1.1c0,1.4,1.1,2.5,2.5,2.5h6.9v7L6.3,59.1
			c-1,0.3-1.8,1.3-1.8,2.4v3.6c0,1.4,1.1,2.5,2.5,2.5s2.5-1.1,2.5-2.5v-1.7l15-4.3v2.4c0,0,0,0,0,0v3.6c0,1.4,1.1,2.5,2.5,2.5
			s2.5-1.1,2.5-2.5v-3.6c0,0,0,0,0,0V59l15,4.3v1.7c0,1.4,1.1,2.5,2.5,2.5s2.5-1.1,2.5-2.5v-3.6c0-1.1-0.8-2.1-1.8-2.4l-15.5-4.5v-7
			h6.6c1.4,0,2.5-1.1,2.5-2.5V44H47c1.4,0,2.5-1.1,2.5-2.5V24h1.6c1.4,0,2.5-1.1,2.5-2.5C53.6,20.1,52.5,19,51.1,19z M41.3,35.8
			H12.7V2.9c0-1.4,1.1-2.5,2.5-2.5h23.6c1.4,0,2.5,1.1,2.5,2.5L41.3,35.8L41.3,35.8z"/>
	</defs>
	<clipPath id="SVGID_2_">
		<use xlink:href="#SVGID_1_"  style="overflow:visible;"/>
	</clipPath>
	<rect fill="#155efb" x="-4.6" y="-4.6" class="st0" width="63.2" height="77.2"/>
</g>
</svg>
