<?xml version="1.0" encoding="utf-8"?>
<!-- Generator: Adobe Illustrator 22.0.0, SVG Export Plug-In . SVG Version: 6.00 Build 0)  -->
<svg version="1.1" id="Layer_1" xmlns="http://www.w3.org/2000/svg" xmlns:xlink="http://www.w3.org/1999/xlink" x="0px" y="0px"
	 viewBox="0 0 345 359" style="enable-background:new 0 0 345 359;" xml:space="preserve">
<g>
	<defs>
		<path id="SVGID_1_" d="M88.9,202.3h86.5c5.5,0,10,4.5,10,10s-4.5,10-10,10H88.9c-5.5,0-10-4.5-10-10S83.3,202.3,88.9,202.3z
			 M88.9,154.4h149.6c5.5,0,10,4.5,10,10s-4.5,10-10,10H88.9c-5.5,0-10-4.5-10-10S83.3,154.4,88.9,154.4z M88.9,105.6h149.6
			c5.5,0,10,4.5,10,10s-4.5,10-10,10H88.9c-5.5,0-10-4.5-10-10S83.3,105.6,88.9,105.6z M52.1,20.2l-1.4,242.1H206
			c5.5,0,10,4.5,10,10v53.3c0,18,14.6,32.6,32.6,32.6s32.6-14.6,32.6-32.6V22.1c0-7.9,2.2-15.3,6.1-21.7h-215
			C61.2,0.4,52.1,9.3,52.1,20.2z"/>
	</defs>
	<linearGradient id="SVGID_2_" gradientUnits="userSpaceOnUse" x1="328.975" y1="291.325" x2="50.9492" y2="13.2992">
		<stop  offset="0" style="stop-color:#1656FD"/>
		<stop  offset="1" style="stop-color:#D102FF"/>
	</linearGradient>
	<use xlink:href="#SVGID_1_"  style="overflow:visible;fill:url(#SVGID_2_);"/>
	<clipPath id="SVGID_3_">
		<use xlink:href="#SVGID_1_"  style="overflow:visible;"/>
	</clipPath>
</g>
<g>
	<defs>
		<path id="SVGID_4_" d="M196,282.2H0.5v43.3c0,18,14.6,32.6,32.6,32.6h174.3c-7.1-9-11.4-20.3-11.4-32.6V282.2z"/>
	</defs>
	<linearGradient id="SVGID_5_" gradientUnits="userSpaceOnUse" x1="176.575" y1="388.925" x2="35.175" y2="247.525">
		<stop  offset="0" style="stop-color:#1656FD"/>
		<stop  offset="1" style="stop-color:#D102FF"/>
	</linearGradient>
	<use xlink:href="#SVGID_4_"  style="overflow:visible;fill:url(#SVGID_5_);"/>
	<clipPath id="SVGID_6_">
		<use xlink:href="#SVGID_4_"  style="overflow:visible;"/>
	</clipPath>
</g>
<g>
	<defs>
		<path id="SVGID_7_" d="M322.8,0.4c-11.9,0-21.7,9.7-21.7,21.7v86.5h43.3V22.1C344.5,10.1,334.8,0.4,322.8,0.4z"/>
	</defs>
	<linearGradient id="SVGID_8_" gradientUnits="userSpaceOnUse" x1="357.4719" y1="95.5281" x2="288.0906" y2="26.1468">
		<stop  offset="0" style="stop-color:#1656FD"/>
		<stop  offset="1" style="stop-color:#D102FF"/>
	</linearGradient>
	<use xlink:href="#SVGID_7_"  style="overflow:visible;fill:url(#SVGID_8_);"/>
	<clipPath id="SVGID_9_">
		<use xlink:href="#SVGID_7_"  style="overflow:visible;"/>
	</clipPath>
</g>
</svg>
