<svg id="Layer_1" data-name="Layer 1" xmlns="http://www.w3.org/2000/svg" viewBox="0 0 90.04 90.04"><defs><style>.cls-1{fill:none;}</style></defs><title>clock</title><path class="cls-1" d="M46,10A36,36,0,1,0,82,46,36.06,36.06,0,0,0,46,10ZM63.15,62.14a4.5,4.5,0,0,1-6.36.35L42.86,50c-1.41-1.27-1.36-5.63-1.36-6V24.37a4.5,4.5,0,0,1,9,0V44a4.05,4.05,0,0,1-.07.7L62.8,55.79A4.5,4.5,0,0,1,63.15,62.14Z" transform="translate(-0.98 -0.98)"/><path fill="#57585c" d="M46,1A45,45,0,1,0,91,46,45.08,45.08,0,0,0,46,1Zm0,81A36,36,0,1,1,82,46,36.06,36.06,0,0,1,46,82Z" transform="translate(-0.98 -0.98)"/><path fill="#57585c" d="M50.43,44.7a4.05,4.05,0,0,0,.07-.7V24.37a4.5,4.5,0,0,0-9,0V44c0,.38,0,4.74,1.36,6L56.79,62.49a4.5,4.5,0,1,0,6-6.7Z" transform="translate(-0.98 -0.98)"/></svg>