<?xml version="1.0" encoding="utf-8"?>
<!-- Generator: Adobe Illustrator 22.0.0, SVG Export Plug-In . SVG Version: 6.00 Build 0)  -->
<svg version="1.1" id="Layer_1" xmlns="http://www.w3.org/2000/svg" xmlns:xlink="http://www.w3.org/1999/xlink" x="0px" y="0px"
	 viewBox="0 0 78 78" style="enable-background:new 0 0 78 78;" xml:space="preserve">
<style type="text/css">
	.st0{fill:url(#SVGID_1_);}
	.st1{fill:url(#SVGID_2_);}
	.st2{fill:url(#SVGID_3_);}
	.st3{fill:url(#SVGID_4_);}
</style>
<title>Combined Shape</title>
<desc>Created with Sketch.</desc>
<g>
	
		<linearGradient id="SVGID_1_" gradientUnits="userSpaceOnUse" x1="-1918.5989" y1="722.3101" x2="-1919.5989" y2="723.3101" gradientTransform="matrix(77.2 0 0 -77.2 148209.3906 55823.9727)">
		<stop  offset="0" style="stop-color:#1656FD"/>
		<stop  offset="1" style="stop-color:#D102FF"/>
	</linearGradient>
	<path class="st0" d="M42.6,0.4v35h35C77.6,16.1,61.9,0.4,42.6,0.4z"/>
	
		<linearGradient id="SVGID_2_" gradientUnits="userSpaceOnUse" x1="-1918.9048" y1="722.0042" x2="-1919.9048" y2="723.0042" gradientTransform="matrix(77.2 0 0 -77.2 148209.3906 55823.9727)">
		<stop  offset="0" style="stop-color:#1656FD"/>
		<stop  offset="1" style="stop-color:#D102FF"/>
	</linearGradient>
	<path class="st1" d="M11.7,68.4c6.2,5.7,14.5,9.2,23.6,9.2c18.8,0,34.1-14.9,34.9-33.5H36L11.7,68.4z"/>
	
		<linearGradient id="SVGID_3_" gradientUnits="userSpaceOnUse" x1="-1919.0292" y1="721.8799" x2="-1920.0292" y2="722.8799" gradientTransform="matrix(77.2 0 0 -77.2 148209.3906 55823.9727)">
		<stop  offset="0" style="stop-color:#1656FD"/>
		<stop  offset="1" style="stop-color:#D102FF"/>
	</linearGradient>
	<path class="st2" d="M0.4,44.1c0.4,8.5,3.8,16.3,9.2,22.1l22.1-22.1H0.4z"/>
	
		<linearGradient id="SVGID_4_" gradientUnits="userSpaceOnUse" x1="-1918.8472" y1="722.0618" x2="-1919.8472" y2="723.0618" gradientTransform="matrix(77.2 0 0 -77.2 148209.3906 55823.9727)">
		<stop  offset="0" style="stop-color:#1656FD"/>
		<stop  offset="1" style="stop-color:#D102FF"/>
	</linearGradient>
	<path class="st3" d="M35.4,40.5V7.6C16.6,7.6,1.3,22.5,0.5,41.1h34.3L35.4,40.5z"/>
</g>
</svg>
