<svg version="1.1" id="Layer_1" xmlns="http://www.w3.org/2000/svg" xmlns:xlink="http://www.w3.org/1999/xlink" x="0px" y="0px"
	 viewBox="0 0 88 68" style="enable-background:new 0 0 88 68;" xml:space="preserve">
<style type="text/css">
	.st0{clip-path:url(#SVGID_2_);}
</style>
<g>
	<defs>
		<path id="SVGID_1_" d="M57.5,62.3c0,2.8-2.2,5-5,5h-17c-2.8,0-5-2.2-5-5v-4.7c0-2.8,2.2-5,5-5h17c2.8,0,5,2.2,5,5V62.3z
			 M72.5,36.3c0,2.8-2.2,5-5,5h-47c-2.8,0-5-2.2-5-5v-4.7c0-2.8,2.2-5,5-5h47c2.8,0,5,2.2,5,5V36.3z M87.5,10.4c0,2.8-2.2,5-5,5h-77
			c-2.8,0-5-2.2-5-5V5.7c0-2.8,2.2-5,5-5h77c2.8,0,5,2.2,5,5V10.4z"/>
	</defs>
	<clipPath id="SVGID_2_">
		<use xlink:href="#SVGID_1_"  style="overflow:visible;"/>
	</clipPath>
	<rect fill="#ffffff" x="-4.5" y="-4.3" class="st0" width="97" height="76.6"/>
</g>
</svg>
