<svg id="Layer_1" data-name="Layer 1" xmlns="http://www.w3.org/2000/svg" xmlns:xlink="http://www.w3.org/1999/xlink" viewBox="0 0 134.75 20.89"><defs><style>.cls-1{clip-rule:evenodd;}.cls-2{opacity:0.8;isolation:isolate;}.cls-3{fill-rule:evenodd;}.cls-4{clip-path:url(#clip-path);}.cls-5{clip-path:url(#clip-path-2);}.cls-6{clip-path:url(#clip-path-3);}</style><clipPath id="clip-path" transform="translate(2.25 6.17)"><path class="cls-1" d="M119.5,9.71h8V8.6h-6.83V0h6.83V-1.09h-8Zm7.84-5.65V5.17h-5V4.06ZM115.67,9.71h1.25l-2.25-4.54a2.07,2.07,0,0,0,1-.26,3.21,3.21,0,0,0,.83-.68,3.74,3.74,0,0,0,.59-.94,2.75,2.75,0,0,0,.16-1.12A3.39,3.39,0,0,0,117,.89a2.75,2.75,0,0,0-.5-1,3.25,3.25,0,0,0-.83-.69,2.19,2.19,0,0,0-1-.26H108V9.71h1.17V0h5.25a1.5,1.5,0,0,1,.67.17,3.47,3.47,0,0,1,.5.51,1.85,1.85,0,0,1,.33.69,2.28,2.28,0,0,1,.08.69,2.25,2.25,0,0,1-.08.68,4,4,0,0,1-.25.6,3.41,3.41,0,0,1-.5.52,1.65,1.65,0,0,1-.67.17h-1.58ZM95.09,4.31a6.13,6.13,0,0,0,.41,2.15,4.79,4.79,0,0,0,1.17,1.71,5.11,5.11,0,0,0,1.67,1.12,5.36,5.36,0,0,0,4.16,0,4.85,4.85,0,0,0,1.67-1.12,6.32,6.32,0,0,0,1.17-1.71,6.13,6.13,0,0,0,.41-2.15v-5.4h-1.16V4.83a4.51,4.51,0,0,1-.5,1.46,7.2,7.2,0,0,1-.92,1.2,3.11,3.11,0,0,1-1.25.77,4.63,4.63,0,0,1-3,0,3.11,3.11,0,0,1-1.25-.77,7.2,7.2,0,0,1-.92-1.2,4.51,4.51,0,0,1-.5-1.46V-1.09H95.09ZM83.75-1.09V0h3.92V9.71h1.17V0h3.91V-1.09ZM70.84,4.31a6.13,6.13,0,0,0,.41,2.15,4.79,4.79,0,0,0,1.17,1.71,5.11,5.11,0,0,0,1.67,1.12,5.36,5.36,0,0,0,4.16,0,4.85,4.85,0,0,0,1.67-1.12,6.32,6.32,0,0,0,1.17-1.71,6.13,6.13,0,0,0,.41-2.15v-5.4H80.34V4.83a4.51,4.51,0,0,1-.5,1.46,7.2,7.2,0,0,1-.92,1.2,3.11,3.11,0,0,1-1.25.77,4.63,4.63,0,0,1-3,0,3.11,3.11,0,0,1-1.25-.77,7.2,7.2,0,0,1-.92-1.2A4.51,4.51,0,0,1,72,4.83V-1.09H70.84ZM48.09,9.71h1.25L47.09,5.17a2.1,2.1,0,0,0,1-.26,3.21,3.21,0,0,0,.83-.68,3.45,3.45,0,0,0,.58-.94,2.6,2.6,0,0,0,.17-1.12A3.39,3.39,0,0,0,49.42.89a4.11,4.11,0,0,0-.58-1A3.13,3.13,0,0,0,48-.83a2.16,2.16,0,0,0-1-.26H40.34V9.71H41.5V0h5.25a1.5,1.5,0,0,1,.67.17,3,3,0,0,1,.5.51,1.71,1.71,0,0,1,.33.69.94.94,0,0,1,.17.69,2.25,2.25,0,0,1-.08.68,5.5,5.5,0,0,1-.25.6,3.41,3.41,0,0,1-.5.52,1.65,1.65,0,0,1-.67.17H45.34ZM27.5,4.31a6.14,6.14,0,0,0,.42,2.15,4.79,4.79,0,0,0,1.17,1.71,5.18,5.18,0,0,0,1.66,1.12,5.86,5.86,0,0,0,2.09.42,5.8,5.8,0,0,0,2.08-.42,4.85,4.85,0,0,0,1.67-1.12,6.07,6.07,0,0,0,1.16-1.71,6.14,6.14,0,0,0,.42-2.15v-5.4H37V4.83a4.29,4.29,0,0,1-.5,1.46,7.15,7.15,0,0,1-.91,1.2,3.18,3.18,0,0,1-1.25.77,4.62,4.62,0,0,1-3,0,3.11,3.11,0,0,1-1.25-.77,6.71,6.71,0,0,1-.92-1.2,4.29,4.29,0,0,1-.5-1.46V-1.09H27.5Zm-11.66,0a3.51,3.51,0,0,1,.33-1.62,4.83,4.83,0,0,1,.92-1.38A4.88,4.88,0,0,1,18.42.37,3.6,3.6,0,0,1,20.09,0a3.26,3.26,0,0,1,1.58.34A4.88,4.88,0,0,1,23,1.31a4.83,4.83,0,0,1,.92,1.38,3.51,3.51,0,0,1,.33,1.62,5.36,5.36,0,0,1-.16,1.2,2.78,2.78,0,0,1-.5,1.12,9.66,9.66,0,0,1-.75.94,7.2,7.2,0,0,1-1,.69l.58.94a5.88,5.88,0,0,0,1.17-.86,5.8,5.8,0,0,0,.91-1.11,7.07,7.07,0,0,0,.59-1.37,5.23,5.23,0,0,0,.25-1.55,6.13,6.13,0,0,0-.42-2.14A4.79,4.79,0,0,0,23.75.46a5.88,5.88,0,0,0-1.66-1.2A5.65,5.65,0,0,0,20-1.17a5.6,5.6,0,0,0-2.08.43A3.93,3.93,0,0,0,16.25.46a6.07,6.07,0,0,0-1.16,1.71,6.13,6.13,0,0,0-.42,2.14,9.08,9.08,0,0,0,.17,1.55,6.49,6.49,0,0,0,.58,1.37,3.71,3.71,0,0,0,.92,1.11,5.82,5.82,0,0,0,1.16.86l.75-.94a7.2,7.2,0,0,1-1-.69,2.79,2.79,0,0,1-.75-.94A5,5,0,0,1,16,5.51,6.07,6.07,0,0,1,15.84,4.31Zm-8.5,5.4H8.5V5.86L13.09-1H11.67L7.92,4.57,4.17-1.09H2.75l4.59,7Z"/></clipPath><clipPath id="clip-path-2" transform="translate(2.25 6.17)"><rect x="2.59" y="-1.86" width="125" height="12"/></clipPath><clipPath id="clip-path-3" transform="translate(2.25 6.17)"><path class="cls-1" d="M60.84,9.71V8.34A2.29,2.29,0,0,1,62.17,6a3.23,3.23,0,0,1,1.33-.34h5.17V3H63.42A4.8,4.8,0,0,0,59.75,4.4,5.46,5.46,0,0,0,58.42,7c0,.26-.08.43-.08.69s-.09.43-.09.68V9.71Zm7.75-8V-1H59.5L58.17,1.66Z"/></clipPath></defs><title>Vector Smart Object</title><g class="cls-2" fill="#7e7f83"><path class="cls-3" d="M119.5,9.71h8V8.6h-6.83V0h6.83V-1.09h-8Zm7.84-5.65V5.17h-5V4.06ZM115.67,9.71h1.25l-2.25-4.54a2.07,2.07,0,0,0,1-.26,3.21,3.21,0,0,0,.83-.68,3.74,3.74,0,0,0,.59-.94,2.75,2.75,0,0,0,.16-1.12A3.39,3.39,0,0,0,117,.89a2.75,2.75,0,0,0-.5-1,3.25,3.25,0,0,0-.83-.69,2.19,2.19,0,0,0-1-.26H108V9.71h1.17V0h5.25a1.5,1.5,0,0,1,.67.17,3.47,3.47,0,0,1,.5.51,1.85,1.85,0,0,1,.33.69,2.28,2.28,0,0,1,.08.69,2.25,2.25,0,0,1-.08.68,4,4,0,0,1-.25.6,3.41,3.41,0,0,1-.5.52,1.65,1.65,0,0,1-.67.17h-1.58ZM95.09,4.31a6.13,6.13,0,0,0,.41,2.15,4.79,4.79,0,0,0,1.17,1.71,5.11,5.11,0,0,0,1.67,1.12,5.36,5.36,0,0,0,4.16,0,4.85,4.85,0,0,0,1.67-1.12,6.32,6.32,0,0,0,1.17-1.71,6.13,6.13,0,0,0,.41-2.15v-5.4h-1.16V4.83a4.51,4.51,0,0,1-.5,1.46,7.2,7.2,0,0,1-.92,1.2,3.11,3.11,0,0,1-1.25.77,4.63,4.63,0,0,1-3,0,3.11,3.11,0,0,1-1.25-.77,7.2,7.2,0,0,1-.92-1.2,4.51,4.51,0,0,1-.5-1.46V-1.09H95.09ZM83.75-1.09V0h3.92V9.71h1.17V0h3.91V-1.09ZM70.84,4.31a6.13,6.13,0,0,0,.41,2.15,4.79,4.79,0,0,0,1.17,1.71,5.11,5.11,0,0,0,1.67,1.12,5.36,5.36,0,0,0,4.16,0,4.85,4.85,0,0,0,1.67-1.12,6.32,6.32,0,0,0,1.17-1.71,6.13,6.13,0,0,0,.41-2.15v-5.4H80.34V4.83a4.51,4.51,0,0,1-.5,1.46,7.2,7.2,0,0,1-.92,1.2,3.11,3.11,0,0,1-1.25.77,4.63,4.63,0,0,1-3,0,3.11,3.11,0,0,1-1.25-.77,7.2,7.2,0,0,1-.92-1.2A4.51,4.51,0,0,1,72,4.83V-1.09H70.84ZM48.09,9.71h1.25L47.09,5.17a2.1,2.1,0,0,0,1-.26,3.21,3.21,0,0,0,.83-.68,3.45,3.45,0,0,0,.58-.94,2.6,2.6,0,0,0,.17-1.12A3.39,3.39,0,0,0,49.42.89a4.11,4.11,0,0,0-.58-1A3.13,3.13,0,0,0,48-.83a2.16,2.16,0,0,0-1-.26H40.34V9.71H41.5V0h5.25a1.5,1.5,0,0,1,.67.17,3,3,0,0,1,.5.51,1.71,1.71,0,0,1,.33.69.94.94,0,0,1,.17.69,2.25,2.25,0,0,1-.08.68,5.5,5.5,0,0,1-.25.6,3.41,3.41,0,0,1-.5.52,1.65,1.65,0,0,1-.67.17H45.34ZM27.5,4.31a6.14,6.14,0,0,0,.42,2.15,4.79,4.79,0,0,0,1.17,1.71,5.18,5.18,0,0,0,1.66,1.12,5.86,5.86,0,0,0,2.09.42,5.8,5.8,0,0,0,2.08-.42,4.85,4.85,0,0,0,1.67-1.12,6.07,6.07,0,0,0,1.16-1.71,6.14,6.14,0,0,0,.42-2.15v-5.4H37V4.83a4.29,4.29,0,0,1-.5,1.46,7.15,7.15,0,0,1-.91,1.2,3.18,3.18,0,0,1-1.25.77,4.62,4.62,0,0,1-3,0,3.11,3.11,0,0,1-1.25-.77,6.71,6.71,0,0,1-.92-1.2,4.29,4.29,0,0,1-.5-1.46V-1.09H27.5Zm-11.66,0a3.51,3.51,0,0,1,.33-1.62,4.83,4.83,0,0,1,.92-1.38A4.88,4.88,0,0,1,18.42.37,3.6,3.6,0,0,1,20.09,0a3.26,3.26,0,0,1,1.58.34A4.88,4.88,0,0,1,23,1.31a4.83,4.83,0,0,1,.92,1.38,3.51,3.51,0,0,1,.33,1.62,5.36,5.36,0,0,1-.16,1.2,2.78,2.78,0,0,1-.5,1.12,9.66,9.66,0,0,1-.75.94,7.2,7.2,0,0,1-1,.69l.58.94a5.88,5.88,0,0,0,1.17-.86,5.8,5.8,0,0,0,.91-1.11,7.07,7.07,0,0,0,.59-1.37,5.23,5.23,0,0,0,.25-1.55,6.13,6.13,0,0,0-.42-2.14A4.79,4.79,0,0,0,23.75.46a5.88,5.88,0,0,0-1.66-1.2A5.65,5.65,0,0,0,20-1.17a5.6,5.6,0,0,0-2.08.43A3.93,3.93,0,0,0,16.25.46a6.07,6.07,0,0,0-1.16,1.71,6.13,6.13,0,0,0-.42,2.14,9.08,9.08,0,0,0,.17,1.55,6.49,6.49,0,0,0,.58,1.37,3.71,3.71,0,0,0,.92,1.11,5.82,5.82,0,0,0,1.16.86l.75-.94a7.2,7.2,0,0,1-1-.69,2.79,2.79,0,0,1-.75-.94A5,5,0,0,1,16,5.51,6.07,6.07,0,0,1,15.84,4.31Zm-8.5,5.4H8.5V5.86L13.09-1H11.67L7.92,4.57,4.17-1.09H2.75l4.59,7Z" transform="translate(2.25 6.17)"/><g class="cls-4"><rect x="4.83" y="4.31" width="125" height="12"/><g class="cls-5"><rect width="134.75" height="20.89"/></g></g><path class="cls-3" d="M60.84,9.71V8.34A2.29,2.29,0,0,1,62.17,6a3.23,3.23,0,0,1,1.33-.34h5.17V3H63.42A4.8,4.8,0,0,0,59.75,4.4,5.46,5.46,0,0,0,58.42,7c0,.26-.08.43-.08.69s-.09.43-.09.68V9.71Zm7.75-8V-1H59.5L58.17,1.66Z" transform="translate(2.25 6.17)"/><g class="cls-6"><rect x="4.83" y="4.31" width="125" height="12"/><g class="cls-5"><rect fill="#7e7f83" x="55.42" y="0.17" width="20.5" height="20.71"/></g></g></g></svg>