<?xml version="1.0" encoding="utf-8"?>
<!-- Generator: Adobe Illustrator 22.0.0, SVG Export Plug-In . SVG Version: 6.00 Build 0)  -->
<svg version="1.1" id="Layer_1" xmlns="http://www.w3.org/2000/svg" xmlns:xlink="http://www.w3.org/1999/xlink" x="0px" y="0px"
	 viewBox="0 0 266 263" style="enable-background:new 0 0 266 263;" xml:space="preserve">
<style type="text/css">
	.st0{clip-path:url(#SVGID_2_);}
</style>
<g>
	<defs>
		<path id="SVGID_1_" d="M208,135c0,15,13,28,29,28s29-13,29-28c0-16-13-29-29-29S208,119,208,135z M120,38c9,0,17,7,17,17
			c0,9-8,16-17,16s-16-7-16-16C104,45,111,38,120,38z M221,226l-90-94l93-92C143-43,0,13,0,132C0,248,139,305,221,226z"/>
	</defs>
	<clipPath id="SVGID_2_">
		<use xlink:href="#SVGID_1_"  style="overflow:visible;"/>
	</clipPath>
	<rect fill="#155efb" x="-5" y="-4.5" class="st0" width="276" height="272.1"/>
</g>
</svg>
