<svg version="1.1" id="Layer_1" xmlns="http://www.w3.org/2000/svg" xmlns:xlink="http://www.w3.org/1999/xlink" x="0px" y="0px"
	 viewBox="0 0 76 76" style="enable-background:new 0 0 76 76;" xml:space="preserve">
<style type="text/css">
	.st0{clip-path:url(#SVGID_2_);}
</style>
<g>
	<defs>
		<path id="SVGID_1_" d="M38,26c6.1,0,11,4.9,11,11c0,6.1-4.9,11-11,11s-11-4.9-11-11C27,30.9,31.9,26,38,26z M38,18
			c-10.4,0-19,8.6-19,19s8.6,19,19,19s19-8.6,19-19S48.4,18,38,18z M58,13c-2.2,0-4,1.8-4,4c0,2.2,1.8,4,4,4c2.2,0,4-1.8,4-4
			C62,14.8,60.2,13,58,13z M20,7h36c6.7,0,12,5.3,12,12v36c0,6.7-5.3,12-12,12H20c-6.7,0-12-5.3-12-12V19C8,12.3,13.3,7,20,7z M20-1
			C9-1,0,8,0,19v36c0,11,9,20,20,20h36c11,0,20-9,20-20V19C76,8,67-1,56-1H20z"/>
	</defs>
	<clipPath id="SVGID_2_">
		<use xlink:href="#SVGID_1_"  style="overflow:visible;"/>
	</clipPath>
	<rect fill="#b9b9bb" x="-5" y="-6" class="st0" width="86" height="86"/>
</g>
</svg>
