
<svg version="1.1" id="Layer_1" xmlns="http://www.w3.org/2000/svg" xmlns:xlink="http://www.w3.org/1999/xlink" x="0px" y="0px"
	 viewBox="0 0 78 52" style="enable-background:new 0 0 78 52;" xml:space="preserve">
<style type="text/css">
	.st0{clip-path:url(#SVGID_2_);}
</style>
<g>
	<defs>
		<path id="SVGID_1_" d="M50,29.1l-5.2,4.6c-3.3,2.9-8.3,2.9-11.6,0l-5.2-4.6L5.3,51c0.2,0,0.5,0,0.7,0h66c0.2,0,0.4,0,0.7,0
			L50,29.1z M77.9,4.2L54.5,25.1l23.1,22.2c0.3-0.7,0.4-1.5,0.4-2.3V5C78,4.7,78,4.4,77.9,4.2L77.9,4.2z M0.1,4.2C0,4.4,0,4.7,0,5
			v40c0,0.8,0.2,1.6,0.5,2.3l23.1-22.2L0.1,4.2L0.1,4.2z M6-1C5.2-1,4.4-0.8,3.7-0.6l33.5,29.8c1.2,1,2.5,1,3.6,0L74.2-0.6
			C73.6-0.8,72.8-1,72-1H6z"/>
	</defs>
	<clipPath id="SVGID_2_">
		<use xlink:href="#SVGID_1_"  style="overflow:visible;"/>
	</clipPath>
	<rect fill="#ffffff" x="-5" y="-6" class="st0" width="88" height="62"/>
</g>
</svg>
