<?xml version="1.0" encoding="utf-8"?>
<!-- Generator: Adobe Illustrator 22.0.0, SVG Export Plug-In . SVG Version: 6.00 Build 0)  -->
<svg version="1.1" id="Layer_1" xmlns="http://www.w3.org/2000/svg" xmlns:xlink="http://www.w3.org/1999/xlink" x="0px" y="0px"
	 viewBox="0 0 211 141" style="enable-background:new 0 0 211 141;" xml:space="preserve">
<style type="text/css">
	.st0{clip-path:url(#SVGID_2_);}
</style>
<g>
	<defs>
		<path id="SVGID_1_" d="M124.9,26.6c4.9-1.7,10.1-2.7,15.6-2.7c25.7,0,46.6,20.9,46.6,46.6s-20.9,46.6-46.6,46.6
			c-5.5,0-10.7-1-15.6-2.7c9.7-12,15.6-27.3,15.6-44S134.6,38.6,124.9,26.6z M70.7,140.3c12.7,0,24.6-3.4,34.9-9.3
			c10.3,5.9,22.2,9.3,34.9,9.3c38.5,0,69.7-31.2,69.7-69.7c0-38.5-31.2-69.7-69.7-69.7c-12.7,0-24.6,3.4-34.9,9.3
			C95.3,4.2,83.4,0.8,70.7,0.8C32.2,0.8,1,32.1,1,70.6S32.2,140.3,70.7,140.3z"/>
	</defs>
	<clipPath id="SVGID_2_">
		<use xlink:href="#SVGID_1_"  style="overflow:visible;"/>
	</clipPath>
	<rect fill="#b9b9bb" x="-4" y="-4.2" class="st0" width="219.2" height="149.5"/>
</g>
</svg>
