<?xml version="1.0" encoding="utf-8"?>
<!-- Generator: Adobe Illustrator 22.0.0, SVG Export Plug-In . SVG Version: 6.00 Build 0)  -->
<svg version="1.1" id="Layer_1" xmlns="http://www.w3.org/2000/svg" xmlns:xlink="http://www.w3.org/1999/xlink" x="0px" y="0px"
	 viewBox="0 0 40 29" style="enable-background:new 0 0 40 29;" xml:space="preserve">
<style type="text/css">
	.st0{clip-path:url(#SVGID_2_);}
</style>
<g>
	<defs>
		<path id="SVGID_1_" d="M0.5,26c0-0.8,0.7-1.5,1.5-1.5h36c0.8,0,1.5,0.7,1.5,1.5v1.5c0,0.8-0.7,1.5-1.5,1.5H2
			c-0.8,0-1.5-0.7-1.5-1.5V26z M0.5,14c0-0.8,0.7-1.5,1.5-1.5h36c0.8,0,1.5,0.7,1.5,1.5v1.5c0,0.8-0.7,1.5-1.5,1.5H2
			c-0.8,0-1.5-0.7-1.5-1.5V14z M0.5,2c0-0.8,0.7-1.5,1.5-1.5h36c0.8,0,1.5,0.7,1.5,1.5v1.5C39.5,4.3,38.8,5,38,5H2
			C1.2,5,0.5,4.3,0.5,3.5V2z"/>
	</defs>
	<clipPath id="SVGID_2_">
		<use xlink:href="#SVGID_1_"  style="overflow:visible;"/>
	</clipPath>
	<rect fill="#fff" x="-4.5" y="-4.5" class="st0" width="49" height="38.5"/>
</g>
</svg>
