<svg version="1.1" id="Layer_1" xmlns="http://www.w3.org/2000/svg" xmlns:xlink="http://www.w3.org/1999/xlink" x="0px" y="0px"
	 viewBox="0 0 60 90" style="enable-background:new 0 0 60 90;" xml:space="preserve">
<style type="text/css">
	.st0{clip-path:url(#SVGID_2_);}
	.st1{clip-path:url(#SVGID_4_);}
</style>
<g>
	<defs>
		<path id="SVGID_1_" d="M14.1,53.3v13.9C14.1,79.8,24.3,90,36.9,90c12.6,0,22.8-10.2,22.8-22.8V53.3H14.1z"/>
	</defs>
	<clipPath id="SVGID_2_">
		<use xlink:href="#SVGID_1_"  style="overflow:visible;"/>
	</clipPath>
	<rect fill="#155efb" x="9.1" y="48.3" class="st0" width="55.6" height="46.7"/>
</g>
<g>
	<defs>
		<path id="SVGID_3_" d="M34.1,20.6c-10.9,2-20.1,13.5-20.1,24.8v5.3h21.7v-5.4c-1-0.2-1.7-0.9-1.7-1.6v-9.8c0-0.8,0.7-1.4,1.7-1.6
			v-7.1h2.2v7.1c1,0.2,1.7,0.9,1.7,1.6v9.8c0,0.8-0.7,1.4-1.7,1.6v5.4h21.7v-5.3c0-11.2-9-22.6-19.8-24.7c3.5-12.5-7.8-26-20.6-18.6
			c-4.7,2.7-6.4,7.5-7.1,12.6c-1.2,7.9-3.7,13.6-10.4,18.5c-2.8,2-0.1,6.8,2.7,4.7c5-3.6,9-7.8,11.2-13.6c1.6-4.1,1.4-8.5,2.6-12.6
			c1.3-4.7,7.2-7.8,11.7-5.6c5,2.5,6,9.3,4.4,14C34.1,20.2,34.1,20.4,34.1,20.6z"/>
	</defs>
	<clipPath id="SVGID_4_">
		<use xlink:href="#SVGID_3_"  style="overflow:visible;"/>
	</clipPath>
	<rect fill="#155efb" x="-4.6" y="-5" class="st1" width="69.1" height="60.7"/>
</g>
</svg>
