<?xml version="1.0" encoding="utf-8"?>
<!-- Generator: Adobe Illustrator 22.0.0, SVG Export Plug-In . SVG Version: 6.00 Build 0)  -->
<svg version="1.1" id="Layer_1" xmlns="http://www.w3.org/2000/svg" xmlns:xlink="http://www.w3.org/1999/xlink" x="0px" y="0px"
	 viewBox="0 0 59 60" style="enable-background:new 0 0 59 60;" xml:space="preserve">
<style type="text/css">
	.st0{fill:none;}
	.st1{fill:url(#SVGID_1_);}
</style>
<title>Shape</title>
<desc>Created with Sketch.</desc>
<g>
	<path class="st0" d="M16.6,40.2c0.2,0.2,0.4,0.3,0.7,0.3c0.2,0,0.5-0.1,0.7-0.3l4.2-4.2c0.4-0.4,0.4-1,0-1.4c-0.4-0.4-1-0.4-1.4,0
		l-4.2,4.2C16.2,39.2,16.2,39.8,16.6,40.2z"/>
	<path class="st0" d="M11.6,35.3c0.2,0.2,0.4,0.3,0.7,0.3c0.2,0,0.5-0.1,0.7-0.3l4.3-4.3c0.4-0.4,0.4-1,0-1.4
		c-0.4-0.4-1-0.4-1.5,0.1l-4.2,4.2C11.2,34.3,11.2,34.9,11.6,35.3z"/>
	<path class="st0" d="M15.2,27.5c-0.4-0.4-1-0.4-1.4,0L5.3,36c-0.4,0.4-0.4,1,0,1.4c0.2,0.2,0.4,0.3,0.7,0.3c0.2,0,0.5-0.1,0.7-0.3
		l8.5-8.5C15.6,28.5,15.6,27.9,15.2,27.5z"/>
	<path class="st0" d="M24.4,48c0.2,0.2,0.4,0.3,0.7,0.3c0.2,0,0.5-0.1,0.7-0.3l4.2-4.3c0.4-0.4,0.4-1,0-1.4c-0.4-0.3-1-0.3-1.4,0.1
		l-4.2,4.2C24,47,24,47.6,24.4,48z"/>
	<path class="st0" d="M13,39.5c-0.4-0.4-1-0.4-1.4,0l-0.7,0.7c-0.4,0.4-0.4,1,0,1.4c0.2,0.2,0.4,0.3,0.7,0.3c0.3,0,0.5-0.1,0.7-0.3
		l0.7-0.7C13.4,40.5,13.4,39.9,13,39.5z"/>
	<path class="st0" d="M22.3,45.8c0.2,0.2,0.4,0.3,0.7,0.3c0.2,0,0.5-0.1,0.7-0.3l4.2-4.2c0.4-0.4,0.4-1,0-1.4c-0.4-0.4-1-0.4-1.4,0
		l-4.2,4.2C21.9,44.8,21.9,45.4,22.3,45.8z"/>
	<path class="st0" d="M20.2,43.7c0.2,0.2,0.4,0.3,0.7,0.3c0.2,0,0.5-0.1,0.7-0.3l4.2-4.2c0.4-0.4,0.4-1,0-1.4
		c-0.4-0.4-1.1-0.4-1.4,0l-4.2,4.2C19.8,42.7,19.8,43.3,20.2,43.7z"/>
	<path class="st0" d="M8.8,36.7l-0.7,0.7c-0.4,0.4-0.4,1,0,1.4c0.2,0.2,0.4,0.3,0.7,0.3c0.2,0,0.5-0.1,0.7-0.3l0.7-0.7
		c0.4-0.4,0.4-1,0-1.4C9.8,36.3,9.2,36.3,8.8,36.7z"/>
	<circle class="st0" cx="44" cy="15" r="5"/>
	<path class="st0" d="M30.7,44.5L22.2,53c-0.4,0.4-0.4,1,0,1.4c0.2,0.2,0.4,0.3,0.7,0.3c0.2,0,0.5-0.1,0.7-0.3l8.5-8.5
		c0.4-0.4,0.4-1,0-1.4C31.7,44.1,31.1,44.1,30.7,44.5z"/>
	<path class="st0" d="M13.8,41.7l-0.7,0.7c-0.4,0.4-0.4,1,0,1.4c0.2,0.2,0.4,0.3,0.7,0.3c0.2,0,0.5-0.1,0.7-0.3l0.7-0.7
		c0.4-0.4,0.4-1.1,0-1.4C14.8,41.3,14.2,41.3,13.8,41.7z"/>
	<path class="st0" d="M20.1,32.5c-0.4-0.4-1-0.4-1.4,0l-4.2,4.2c-0.4,0.4-0.4,1,0,1.4c0.2,0.2,0.4,0.3,0.7,0.3
		c0.2,0,0.5-0.1,0.7-0.3l4.2-4.2C20.5,33.5,20.5,32.9,20.1,32.5z"/>
	<path class="st0" d="M22.9,50.8c0.4-0.4,0.4-1,0-1.4c-0.4-0.4-1-0.4-1.4,0l-0.7,0.7c-0.4,0.4-0.4,1,0,1.4c0.2,0.2,0.5,0.3,0.7,0.3
		s0.5-0.1,0.7-0.3L22.9,50.8z"/>
	<path class="st0" d="M18.7,45.2c-0.4-0.4-1-0.4-1.4,0l-0.7,0.7c-0.4,0.4-0.4,1,0,1.4c0.2,0.2,0.4,0.3,0.7,0.3
		c0.2,0,0.5-0.1,0.7-0.3l0.7-0.7C19.1,46.2,19.1,45.6,18.7,45.2z"/>
	<path class="st0" d="M20.8,47.3c-0.4-0.4-1-0.4-1.4,0L18.7,48c-0.4,0.4-0.4,1,0,1.4c0.2,0.2,0.4,0.3,0.7,0.3c0.3,0,0.5-0.1,0.7-0.3
		l0.7-0.7C21.2,48.3,21.2,47.7,20.8,47.3z"/>
	
		<linearGradient id="SVGID_1_" gradientUnits="userSpaceOnUse" x1="-1920.7731" y1="710.6161" x2="-1921.7731" y2="711.6161" gradientTransform="matrix(59 0 0 -60 113389.9922 42691.4883)">
		<stop  offset="0" style="stop-color:#1656FD"/>
		<stop  offset="1" style="stop-color:#D102FF"/>
	</linearGradient>
	<path class="st1" d="M58.7,0.3c-0.4-0.4-1-0.4-1.4,0L53.6,4H30.3L1,33.5c-0.7,0.7-1,1.6-1,2.5c0,0.9,0.4,1.8,1,2.5L21.5,59
		c0.7,0.7,1.6,1,2.5,1s1.8-0.4,2.5-1L55,29.7V5.4l3.7-3.7C59.1,1.3,59.1,0.7,58.7,0.3z M30,42.3c0.4,0.4,0.4,1,0,1.4L25.8,48
		c-0.2,0.2-0.5,0.3-0.7,0.3c-0.3,0-0.5-0.1-0.7-0.3c-0.4-0.4-0.4-1,0-1.4l4.2-4.2C29,42,29.6,42,30,42.3z M27.9,40.2
		c0.4,0.4,0.4,1,0,1.4l-4.2,4.2c-0.2,0.2-0.5,0.3-0.7,0.3c-0.3,0-0.5-0.1-0.7-0.3c-0.4-0.4-0.4-1,0-1.4l4.2-4.2
		C26.9,39.8,27.5,39.8,27.9,40.2z M25.8,38.1c0.4,0.4,0.4,1,0,1.4l-4.2,4.2c-0.2,0.2-0.5,0.3-0.7,0.3c-0.3,0-0.5-0.1-0.7-0.3
		c-0.4-0.4-0.4-1,0-1.4l4.2-4.2C24.7,37.7,25.4,37.7,25.8,38.1z M22.2,34.6c0.4,0.4,0.4,1,0,1.4L18,40.2c-0.2,0.2-0.5,0.3-0.7,0.3
		c-0.3,0-0.5-0.1-0.7-0.3c-0.4-0.4-0.4-1,0-1.4l4.2-4.2C21.2,34.2,21.8,34.2,22.2,34.6z M17.3,29.6c0.4,0.4,0.4,1,0,1.4L13,35.3
		c-0.2,0.2-0.5,0.3-0.7,0.3c-0.3,0-0.5-0.1-0.7-0.3c-0.4-0.4-0.4-1,0-1.4l4.2-4.2C16.3,29.2,16.9,29.2,17.3,29.6z M6,37.7
		c-0.3,0-0.5-0.1-0.7-0.3c-0.4-0.4-0.4-1,0-1.4l8.5-8.5c0.4-0.4,1-0.4,1.4,0c0.4,0.4,0.4,1,0,1.4l-8.5,8.5C6.5,37.6,6.2,37.7,6,37.7
		z M10.2,38.1l-0.7,0.7C9.3,39,9,39.1,8.8,39.1c-0.3,0-0.5-0.1-0.7-0.3c-0.4-0.4-0.4-1,0-1.4l0.7-0.7c0.4-0.4,1-0.4,1.4,0
		C10.6,37.1,10.6,37.7,10.2,38.1z M11.6,41.9c-0.3,0-0.5-0.1-0.7-0.3c-0.4-0.4-0.4-1,0-1.4l0.7-0.7c0.4-0.4,1-0.4,1.4,0
		c0.4,0.4,0.4,1,0,1.4l-0.7,0.7C12.1,41.8,11.9,41.9,11.6,41.9z M15.2,43.1l-0.7,0.7c-0.2,0.2-0.5,0.3-0.7,0.3
		c-0.3,0-0.5-0.1-0.7-0.3c-0.4-0.4-0.4-1,0-1.4l0.7-0.7c0.4-0.4,1-0.4,1.4,0C15.6,42,15.6,42.7,15.2,43.1z M15.2,38.4
		c-0.3,0-0.5-0.1-0.7-0.3c-0.4-0.4-0.4-1,0-1.4l4.2-4.2c0.4-0.4,1-0.4,1.4,0c0.4,0.4,0.4,1,0,1.4l-4.2,4.2
		C15.7,38.3,15.4,38.4,15.2,38.4z M17.3,47.6c-0.3,0-0.5-0.1-0.7-0.3c-0.4-0.4-0.4-1,0-1.4l0.7-0.7c0.4-0.4,1-0.4,1.4,0
		c0.4,0.4,0.4,1,0,1.4L18,47.3C17.8,47.5,17.5,47.6,17.3,47.6z M19.4,49.7c-0.3,0-0.5-0.1-0.7-0.3c-0.4-0.4-0.4-1,0-1.4l0.7-0.7
		c0.4-0.4,1-0.4,1.4,0c0.4,0.4,0.4,1,0,1.4l-0.7,0.7C19.9,49.6,19.7,49.7,19.4,49.7z M20.8,51.5c-0.4-0.4-0.4-1,0-1.4l0.7-0.7
		c0.4-0.4,1-0.4,1.4,0c0.4,0.4,0.4,1,0,1.4l-0.7,0.7c-0.2,0.2-0.5,0.3-0.7,0.3S21,51.7,20.8,51.5z M32.1,45.9l-8.5,8.5
		c-0.2,0.2-0.5,0.3-0.7,0.3c-0.3,0-0.5-0.1-0.7-0.3c-0.4-0.4-0.4-1,0-1.4l8.5-8.5c0.4-0.4,1-0.4,1.4,0
		C32.5,44.9,32.5,45.5,32.1,45.9z M44,20c-2.8,0-5-2.2-5-5c0-2.8,2.2-5,5-5s5,2.2,5,5C49,17.8,46.8,20,44,20z"/>
</g>
</svg>
