<svg version="1.1" id="Layer_1" xmlns="http://www.w3.org/2000/svg" xmlns:xlink="http://www.w3.org/1999/xlink" x="0px" y="0px"
	 viewBox="0 0 32 30" style="enable-background:new 0 0 32 30;" xml:space="preserve">
<style type="text/css">
	.st0{clip-path:url(#SVGID_2_);}
	.st1{clip-path:url(#SVGID_4_);}
	.st2{clip-path:url(#SVGID_6_);}
	.st3{clip-path:url(#SVGID_8_);}
</style>
<g>
	<defs>
		<path id="SVGID_1_" d="M7,8.2H3.6c-1.7,0-3.1,1.4-3.1,3.1v2.6c0,1.7,1.4,3.1,3.1,3.1H7V8.2z"/>
	</defs>
	<clipPath id="SVGID_2_">
		<use xlink:href="#SVGID_1_"  style="overflow:visible;"/>
	</clipPath>
	<rect fill="#155efb" x="-4.5" y="3.2" class="st0" width="16.5" height="18.8"/>
</g>
<g>
	<defs>
		<path id="SVGID_3_" d="M7.8,18.6h-4l2.4,8.8c0.3,1,1.2,1.7,2.2,1.7c0.7,0,1.4-0.3,1.8-0.9c0.4-0.6,0.6-1.3,0.3-2l-2.3-7.4
			L7.8,18.6z"/>
	</defs>
	<clipPath id="SVGID_4_">
		<use xlink:href="#SVGID_3_"  style="overflow:visible;"/>
	</clipPath>
	<rect fill="#155efb" x="-1.2" y="13.6" class="st1" width="16.8" height="20.5"/>
</g>
<g>
	<defs>
		<path id="SVGID_5_" d="M29.1,10.1c-0.3,0-0.5,0-0.8,0.1v4.6c0.3,0.1,0.5,0.1,0.8,0.1c1.3,0,2.4-1.1,2.4-2.4S30.4,10.1,29.1,10.1z"
			/>
	</defs>
	<clipPath id="SVGID_6_">
		<use xlink:href="#SVGID_5_"  style="overflow:visible;"/>
	</clipPath>
	<rect fill="#155efb" x="23.3" y="5.1" class="st2" width="13.2" height="14.8"/>
</g>
<g>
	<defs>
		<path id="SVGID_7_" d="M26.3,0.8L8.7,7.9v9.3l17.7,7.1c0.1,0,0.1,0,0.2-0.1c0.1-0.1,0.1-0.1,0.1-0.2v-8.6V9.8V1.1
			C26.6,0.9,26.5,0.8,26.3,0.8z"/>
	</defs>
	<clipPath id="SVGID_8_">
		<use xlink:href="#SVGID_7_"  style="overflow:visible;"/>
	</clipPath>
	<rect fill="#155efb" x="3.7" y="-4.2" class="st3" width="28" height="33.5"/>
</g>
</svg>
