<?xml version="1.0" encoding="utf-8"?>
<!-- Generator: Adobe Illustrator 22.0.0, SVG Export Plug-In . SVG Version: 6.00 Build 0)  -->
<svg version="1.1" id="Layer_1" xmlns="http://www.w3.org/2000/svg" xmlns:xlink="http://www.w3.org/1999/xlink" x="0px" y="0px"
	 viewBox="0 0 22 15" style="enable-background:new 0 0 22 15;" xml:space="preserve">
<style type="text/css">
	.st0{fill:none;}
	.st1{fill:url(#SVGID_1_);}
</style>
<title>Shape</title>
<desc>Created with Sketch.</desc>
<g>
	<path class="st0" d="M8,6.5H6.5V5c0-0.3-0.2-0.5-0.5-0.5S5.5,4.7,5.5,5v1.5H4C3.7,6.5,3.5,6.7,3.5,7c0,0.3,0.2,0.5,0.5,0.5h1.5V9
		c0,0.3,0.2,0.5,0.5,0.5S6.5,9.3,6.5,9V7.5H8c0.3,0,0.5-0.2,0.5-0.5C8.5,6.7,8.3,6.5,8,6.5z"/>
	<circle class="st0" cx="12.5" cy="7.5" r="1"/>
	<circle class="st0" cx="14.5" cy="5.5" r="1"/>
	<circle class="st0" cx="15.5" cy="8.5" r="1"/>
	<circle class="st0" cx="17.5" cy="6.5" r="1"/>
	
		<linearGradient id="SVGID_1_" gradientUnits="userSpaceOnUse" x1="-1878.0762" y1="651.0298" x2="-1879.0762" y2="652.0298" gradientTransform="matrix(21 0 0 -14.119 39460.5 9206.3623)">
		<stop  offset="0" style="stop-color:#1656FD"/>
		<stop  offset="1" style="stop-color:#D102FF"/>
	</linearGradient>
	<path class="st1" d="M15.7,0c-1.1-0.1-2.2,0.2-3.1,0.8c-0.5,0.4-1.1,0.6-1.6,0.5c-0.6,0.1-1.2-0.1-1.7-0.5C8.5,0.2,7.4-0.1,6.3,0
		C2.5,0,0.5,6.8,0.5,9.2c0,3.2,1.1,4.8,3.4,4.8c1.4-0.1,2.7-0.6,3.8-1.3c1-0.6,2.1-1,3.3-1.1c1.2,0.1,2.3,0.5,3.3,1.2
		c1.2,0.7,2.5,1.2,3.8,1.3c2.2,0,3.4-1.6,3.4-4.8C21.5,6.8,19.5,0,15.7,0z M8,7.5H6.5V9c0,0.3-0.2,0.5-0.5,0.5S5.5,9.3,5.5,9V7.5H4
		C3.7,7.5,3.5,7.3,3.5,7c0-0.3,0.2-0.5,0.5-0.5h1.5V5c0-0.3,0.2-0.5,0.5-0.5S6.5,4.7,6.5,5v1.5H8c0.3,0,0.5,0.2,0.5,0.5
		C8.5,7.3,8.3,7.5,8,7.5z M12.5,8.5c-0.6,0-1-0.4-1-1c0-0.6,0.4-1,1-1s1,0.4,1,1C13.5,8.1,13.1,8.5,12.5,8.5z M13.5,5.5
		c0-0.6,0.4-1,1-1s1,0.4,1,1c0,0.6-0.4,1-1,1S13.5,6.1,13.5,5.5z M15.5,9.5c-0.6,0-1-0.4-1-1c0-0.6,0.4-1,1-1s1,0.4,1,1
		C16.5,9.1,16.1,9.5,15.5,9.5z M17.5,7.5c-0.6,0-1-0.4-1-1c0-0.6,0.4-1,1-1s1,0.4,1,1C18.5,7.1,18.1,7.5,17.5,7.5z"/>
</g>
</svg>
