<svg version="1.1" id="Layer_1" xmlns="http://www.w3.org/2000/svg" xmlns:xlink="http://www.w3.org/1999/xlink" x="0px" y="0px"
	 viewBox="0 0 4028 4752" style="enable-background:new 0 0 4028 4752;" xml:space="preserve">
<g>
	<path fill="#b9b9bb" d="M128,4225h911l229-1453l-7,46c16-103,104-178,208-178h433c851,0,1518-346,1712-1346c6-30,15-87,15-87c56-370,0-621-200-848
		C3209,108,2811,0,2303,0H826C722,0,633,76,617,179L2,4078C-10,4155,50,4225,128,4225z"/>
	<path fill="#b9b9bb" d="M1902,2902h-388l-290,1850h630c91,0,169-66,183-156l7-39l145-918l9-51c15-90,92-156,183-156h115c744,0,1327-303,1498-1177
		c68-351,35-645-134-858C3648,2381,2973,2902,1902,2902z"/>
</g>
</svg>
