<?xml version="1.0" encoding="utf-8"?>
<!-- Generator: Adobe Illustrator 22.0.0, SVG Export Plug-In . SVG Version: 6.00 Build 0)  -->
<svg version="1.1" id="Layer_1" xmlns="http://www.w3.org/2000/svg" xmlns:xlink="http://www.w3.org/1999/xlink" x="0px" y="0px"
	 viewBox="0 0 54 60" style="enable-background:new 0 0 54 60;" xml:space="preserve">
<style type="text/css">
	.st0{fill:none;}
	.st1{fill:url(#SVGID_1_);}
	.st2{fill:url(#SVGID_2_);}
	.st3{fill:url(#SVGID_3_);}
	.st4{fill:url(#SVGID_4_);}
</style>
<title>Combined Shape</title>
<desc>Created with Sketch.</desc>
<g>
	<path class="st0" d="M14,19v2C14,20.3,14,19.7,14,19L14,19z"/>
	
		<linearGradient id="SVGID_1_" gradientUnits="userSpaceOnUse" x1="-1919.8745" y1="710.4095" x2="-1920.8745" y2="711.4095" gradientTransform="matrix(54 0 0 -60 103721 42691.4883)">
		<stop  offset="0" style="stop-color:#1656FD"/>
		<stop  offset="1" style="stop-color:#D102FF"/>
	</linearGradient>
	<path class="st1" d="M24.2,39.3L21,38l1.8,9l3.2,6l3.2-6l1.8-9l-3.1,1.3C26.7,39.8,25.4,39.8,24.2,39.3z"/>
	
		<linearGradient id="SVGID_2_" gradientUnits="userSpaceOnUse" x1="-1919.6798" y1="710.6042" x2="-1920.6798" y2="711.6042" gradientTransform="matrix(54 0 0 -60 103721 42691.4883)">
		<stop  offset="0" style="stop-color:#1656FD"/>
		<stop  offset="1" style="stop-color:#D102FF"/>
	</linearGradient>
	<path class="st2" d="M14,21v-2h0.1C14,19.7,14,20.3,14,21c0,9.4,7.8,16,12,16s12-6.6,12-16c0-1.6-0.2-3.1-0.5-4.4
		C37.8,15.7,38,15,38,15l-1-5l-9-9l-2-1l-2,4l-3,1l-2,1l-2,2l-1,2l-1,1l-1,2v5c0,0-1,0.7-1,3c0,2.3,1,4,1,4V21z"/>
	
		<linearGradient id="SVGID_3_" gradientUnits="userSpaceOnUse" x1="-1919.9781" y1="710.3059" x2="-1920.9781" y2="711.3059" gradientTransform="matrix(54 0 0 -60 103721 42691.4883)">
		<stop  offset="0" style="stop-color:#1656FD"/>
		<stop  offset="1" style="stop-color:#D102FF"/>
	</linearGradient>
	<path class="st3" d="M50,48.8c-0.6-1.8-2.1-3.2-3.9-3.9L33,40l-1,8l-6,8l-6-8l-1-8L6.6,45.8c-1.7,0.8-2.9,2.2-3.5,4L0,60h54
		L50,48.8z"/>
	
		<linearGradient id="SVGID_4_" gradientUnits="userSpaceOnUse" x1="-1919.5864" y1="710.6976" x2="-1920.5864" y2="711.6976" gradientTransform="matrix(54 0 0 -60 103721 42691.4883)">
		<stop  offset="0" style="stop-color:#1656FD"/>
		<stop  offset="1" style="stop-color:#D102FF"/>
	</linearGradient>
	<path class="st4" d="M39,21c0-2.3-1-3-1-3v3v4C38,25,39,23.3,39,21z"/>
</g>
</svg>
