<svg id="Layer_1" data-name="Layer 1" xmlns="http://www.w3.org/2000/svg" xmlns:xlink="http://www.w3.org/1999/xlink" viewBox="0 0 97.05 97.28"><defs><style>.cls-1{fill:none;}.cls-2{clip-path:url(#clip-path);}</style><clipPath id="clip-path" transform="translate(4.32 4.66)"><path class="cls-1" d="M84.5,63.6,66.7,54.4A5.86,5.86,0,0,0,59.4,56l-6.5,8.4A64.68,64.68,0,0,1,36.1,52.1,62.66,62.66,0,0,1,23.7,35L32,28.5a5.86,5.86,0,0,0,1.6-7.3L24.4,3.5a5.94,5.94,0,0,0-8.5-2.2L4.6,8.9A9,9,0,0,0,.7,16.8,53.47,53.47,0,0,0,2.1,26.9C5.4,39.6,13.3,52.7,24.5,63.8s24.2,19,36.9,22.4a76.11,76.11,0,0,0,10.2,1.4,8.78,8.78,0,0,0,8-4L87,72.1A6.34,6.34,0,0,0,84.5,63.6Z"/></clipPath></defs><title>phone</title><g class="cls-2"><rect fill="#155efb" width="97.05" height="97.28"/></g></svg>