<svg version="1.1" id="Layer_1" xmlns="http://www.w3.org/2000/svg" xmlns:xlink="http://www.w3.org/1999/xlink" x="0px" y="0px"
	 viewBox="0 0 87 86" style="enable-background:new 0 0 87 86;" xml:space="preserve">
<style type="text/css">
	.st0{clip-path:url(#SVGID_2_);}
</style>
<g>
	<defs>
		<path id="SVGID_1_" d="M35.5,14C47.3,14,57,23.6,57,35.5C57,47.3,47.3,57,35.5,57C23.6,57,14,47.3,14,35.5
			C14,23.6,23.6,14,35.5,14z M35.5,71c7.3,0,14-2.2,19.6-5.9L74,83.9c1.4,1.4,3.2,2.1,5,2.1s3.6-0.7,5-2.1c2.7-2.7,2.7-7.2,0-9.9
			L65,55.1c3.8-5.6,5.9-12.4,5.9-19.6C71,15.9,55.1,0,35.5,0S0,15.9,0,35.5S15.9,71,35.5,71z"/>
	</defs>
	<clipPath id="SVGID_2_">
		<use xlink:href="#SVGID_1_"  style="overflow:visible;"/>
	</clipPath>
	<rect fill="#57585c" x="-5" y="-5" class="st0" width="96" height="96"/>
</g>
</svg>
