<svg version="1.1" id="Layer_1" xmlns="http://www.w3.org/2000/svg" xmlns:xlink="http://www.w3.org/1999/xlink" x="0px" y="0px"
	 viewBox="0 0 69 101" style="enable-background:new 0 0 69 101;" xml:space="preserve">
<style type="text/css">
	.st0{clip-path:url(#SVGID_2_);}
	.st1{clip-path:url(#SVGID_4_);}
</style>
<g>
	<defs>
		<path id="SVGID_1_" d="M34.5,56.3c-4.5,0-8.1,3.6-8.1,8.1c0,4.5,3.6,8.1,8.1,8.1c4.5,0,8.1-3.6,8.1-8.1C42.6,60,39,56.3,34.5,56.3
			z"/>
	</defs>
	<clipPath id="SVGID_2_">
		<use xlink:href="#SVGID_1_"  style="overflow:visible;"/>
	</clipPath>
	<rect fill="#155efb" x="21.4" y="51.3" class="st0" width="26.3" height="26.3"/>
</g>
<g>
	<defs>
		<path id="SVGID_3_" d="M34.5,91.2c-14.8,0-26.7-12-26.7-26.7c0-14.8,12-26.7,26.7-26.7c14.8,0,26.7,12,26.7,26.7
			C61.2,79.2,49.3,91.2,34.5,91.2z M34.5,9.4c5.1,0,9.3,4.2,9.3,9.3c0,5.1-4.2,9.3-9.3,9.3c-5.1,0-9.3-4.2-9.3-9.3
			C25.2,13.6,29.4,9.4,34.5,9.4z M63.9,0.9H5C2.5,0.9,0.4,3,0.4,5.5v89.9c0,2.6,2.1,4.6,4.6,4.6h58.9c2.6,0,4.7-2.1,4.7-4.6V5.5
			C68.6,3,66.5,0.9,63.9,0.9z"/>
	</defs>
	<clipPath id="SVGID_4_">
		<use xlink:href="#SVGID_3_"  style="overflow:visible;"/>
	</clipPath>
	<rect fill="#155efb" x="-4.6" y="-4.1" class="st1" width="78.2" height="109.2"/>
</g>
</svg>
