<svg version="1.1" id="Layer_1" xmlns="http://www.w3.org/2000/svg" xmlns:xlink="http://www.w3.org/1999/xlink" x="0px" y="0px"
	 viewBox="0 0 1001 324" style="enable-background:new 0 0 1001 324;" xml:space="preserve">
<style type="text/css">
	.st0{fill:none;}
</style>
<g>
	<path class="st0" d="M877.7,90.3c-4,11.7-11,30.7-10.7,30c0,0-25.7,69.7-32.3,87.7c16,0,54.7,0,67.3,0
		c-3.3-15.7-18.7-90.7-18.7-90.7L877.7,90.3z"/>
	<polygon fill="#b9b9bb" points="352.3,319 433.4,319 484,5.7 403,5.7 	"/>
	<path fill="#b9b9bb" d="M648.3,65.7c26.3-0.7,45.7,5.7,60.3,12L716,81l11-67.7C711,7,685.7,0,654.4,0c-80,0-136.3,42.7-136.7,103.7
		c-0.7,45,40.3,70,71,85c31.3,15.3,42,25.3,42,39c-0.3,21-25.3,30.7-48.6,30.7c-32.3,0-49.7-5-76-16.7l-10.7-5L484,307
		c19,8.7,54,16.3,90.3,16.7c85,0,140.3-42,141-107c0.3-35.7-21.3-63-68-85.3c-28.3-14.3-45.7-24-45.7-38.7
		C602,79.3,616.3,65.7,648.3,65.7z"/>
	<path fill="#b9b9bb" d="M872,5.7c-19.3,0-34,5.7-42.3,26L709.4,319h85c0,0,14-38.7,17-47c9.3,0,92,0,104,0c2.3,11,9.7,47,9.7,47h75L934.7,5.7H872z
		 M834.7,208c6.7-18,32.3-87.7,32.3-87.7c-0.3,0.7,6.7-18.3,10.7-30l5.7,27c0,0,15.3,75,18.7,90.7C889.4,208,850.7,208,834.7,208z"
		/>
	<path fill="#b9b9bb" d="M157.3,318.7H243l127.3-313h-85.7l-79.3,213.6l-8.7-43.3c0,0,0,0,0,0L168.3,32c-4.7-20-19-25.7-36.7-26.3H1.3L0,12
		c31.8,8.1,60.2,19.8,85.1,34.4L157.3,318.7z"/>
</g>
</svg>
