<svg version="1.1" id="Layer_1" xmlns="http://www.w3.org/2000/svg" xmlns:xlink="http://www.w3.org/1999/xlink" x="0px" y="0px"
	 viewBox="0 0 24 24" style="enable-background:new 0 0 24 24;" xml:space="preserve">
<title  id="simpleicons-vk-icon">VK icon</title>
<path fill="#b9b9bb" d="M11.7,18.8h1.4c0,0,0.4,0,0.7-0.3c0.2-0.2,0.2-0.6,0.2-0.6s0-1.9,0.9-2.2c0.9-0.3,2,1.9,3.2,2.7c0.9,0.6,1.6,0.5,1.6,0.5
	l3.2,0c0,0,1.7-0.1,0.9-1.4c-0.1-0.1-0.5-1-2.4-2.8c-2-1.9-1.7-1.6,0.7-4.8c1.5-2,2.1-3.2,1.9-3.7c-0.2-0.5-1.3-0.4-1.3-0.4l-3.6,0
	c0,0-0.3,0-0.5,0.1c-0.2,0.1-0.3,0.4-0.3,0.4S17.8,7.8,17,9.1c-1.6,2.7-2.3,2.9-2.5,2.7c-0.6-0.4-0.4-1.6-0.4-2.4
	c0-2.6,0.4-3.8-0.8-4c-0.4-0.1-0.7-0.2-1.7-0.2c-1.3,0-2.4,0-3,0.3C8.2,5.7,7.8,6.1,8,6.2c0.2,0,0.8,0.1,1.1,0.5
	c0.4,0.5,0.4,1.6,0.4,1.6s0.2,3.1-0.5,3.5c-0.5,0.3-1.2-0.3-2.6-2.8C5.6,7.8,5.1,6.4,5.1,6.4S5,6.1,4.8,6C4.5,5.8,4.2,5.8,4.2,5.8
	l-3.4,0c0,0-0.5,0-0.7,0.2c-0.2,0.2,0,0.6,0,0.6s2.7,6.3,5.7,9.5C8.6,19,11.8,18.8,11.7,18.8C11.8,18.8,11.7,18.8,11.7,18.8z"/>
</svg>
